# xmcd CD database file
#
# Track frame offsets:
#	150
#	8692
#	29692
#	48282
#	68207
#	79840
#	97010
#	115632
#	132425
#	151075
#	167587
#	187072
#
# Disc length: 2735 seconds
#
# Revision: 0
# Processed by: cddbd v1.5.1PL2 Copyright (c) Steve Scherf et al.
# Submitted via: CDex 1.51
#
DISCID=960aad0c
DTITLE=石川鷹彦 - WORDS?
DYEAR=1996
DGENRE=New Age
TTITLE0=イーハトーヴの朝
TTITLE1=エスカルゴ
TTITLE2=今も想いは変わらぬままに
TTITLE3=ラパナの空はパリラ・プリ
TTITLE4=プラットホーム
TTITLE5=チャーリーの長靴
TTITLE6=上海パンプキン
TTITLE7=峡谷の風
TTITLE8=望郷
TTITLE9=わたぼうし
TTITLE10=As time passes by
TTITLE11=Marimo
EXTD=YEAR: 1996
EXTT0=
EXTT1=
EXTT2=
EXTT3=
EXTT4=
EXTT5=
EXTT6=
EXTT7=
EXTT8=
EXTT9=
EXTT10=
EXTT11=
PLAYORDER=
